# xmcd
#
# Track frame offsets: 
#        150
#        14363
#        38737
#        65144
#        84045
#        111668
#        131422
#        164931
#        203182
#        219703
#        248431
#        250905
#
# Disc length: 3972 seconds
#
# Revision: 0
# Processed by: cddbd v1.5.2PL0 Copyright (c) Steve Scherf et al.
# Submitted via: ExactAudioCopyFreeDBPlugin 1.0
#
DISCID=ac0f820c
DTITLE=Earl Thomas and The Toyal Guard - Live at Blues Baltica
DYEAR=2015
DGENRE=Blues
TTITLE0=Earl Thomas and The Royal Guard - Make You Mine
TTITLE1=Earl Thomas and The Royal Guard - Be Alright
TTITLE2=Earl Thomas and The Royal Guard - Find The Time
TTITLE3=Earl Thomas and The Royal Guard - Do Right Game
TTITLE4=Earl Thomas and The Royal Guard - Blue Nocturne
TTITLE5=Earl Thomas and The Royal Guard - Change It
TTITLE6=Earl Thomas and The Royal Guard - I Sing The Blues
TTITLE7=Earl Thomas and The Royal Guard - Crazy
TTITLE8=Earl Thomas and The Royal Guard - Nowhere to Hide
TTITLE9=Earl Thomas and The Royal Guard - Lead A Horse To Water
TTITLE10=Earl Thomas and The Royal Guard - Intro
TTITLE11=Earl Thomas and The Royal Guard - 3 O'Clock Blues
EXTD=
EXTT0=
EXTT1=
EXTT2=
EXTT3=
EXTT4=
EXTT5=
EXTT6=
EXTT7=
EXTT8=
EXTT9=
EXTT10=
EXTT11=
PLAYORDER=
